<svg xmlns="http://www.w3.org/2000/svg" width="192" height="192" viewBox="0 0 192 192" fill="none">
<g clip-path="url(#clip0_4_1360)">
<path d="M178.52 59.93L159.92 63.55L140.07 59.93L135.76 39.54L140.07 21.48L178.52 59.93Z" fill="#E94335"/>
<path d="M140.07 59.9299V119.01H71.61L51.92 138.7L49.37 147.9L51.92 157.45V180.3C51.92 185.83 58.61 188.6 62.52 184.69L89.76 157.45H167.26C173.47 157.45 178.51 152.41 178.51 146.2V59.9299H140.06H140.07Z" fill="#34A753"/>
<path d="M51.93 119L31.29 121.71L13.48 119V59.93L32.69 56.84L51.93 59.93V119Z" fill="#4284F3"/>
<path d="M51.93 59.93H13.48V32.74C13.48 26.53 18.52 21.49 24.73 21.49H51.92L55.45 39.7L51.92 59.93H51.93Z" fill="#1967D1"/>
<path d="M13.47 145.45L13.47 119H51.92V157.45H25.47C18.85 157.45 13.47 152.07 13.47 145.45Z" fill="#188038"/>
<path d="M140.07 59.93V21.48L51.9199 21.48V59.93L140.07 59.93Z" fill="#FABB04"/>
</g>
<defs>
<clipPath id="clip0_4_1360">
<rect width="192" height="192" fill="white"/>
</clipPath>
</defs>
</svg>